<svg id="bold" enable-background="new 0 0 32 32" height="512" viewBox="0 0 32 32" width="512" xmlns="http://www.w3.org/2000/svg"><path d="m26 32h-20c-3.314 0-6-2.686-6-6v-20c0-3.314 2.686-6 6-6h20c3.314 0 6 2.686 6 6v20c0 3.314-2.686 6-6 6z" fill="#fff9dd"/><path d="m23.333 22.667h-2.667v-10.167c0-.276-.224-.5-.5-.5h-.833v-1.5c0-.276-.224-.5-.5-.5h-2.167v-1.333c.001-.369-.298-.667-.666-.667s-.667.299-.667.667v1.333h-2.167c-.276 0-.5.224-.5.5v1.5h-.833c-.276 0-.5.224-.5.5v10.167h-2.666c-.369 0-.667.298-.667.666s.298.667.667.667h14.667c.368 0 .666-.298.666-.667s-.298-.666-.667-.666zm-7.333-8c.276 0 .5.224.5.5v7.5h-1v-7.5c0-.276.224-.5.5-.5zm2 .5c0-.276.224-.5.5-.5s.5.224.5.5v7.5h-1zm-5 0c0-.276.224-.5.5-.5s.5.224.5.5v7.5h-1z" fill="#ffd200"/></svg>