<svg id="bold" enable-background="new 0 0 32 32" height="512" viewBox="0 0 32 32" width="512" xmlns="http://www.w3.org/2000/svg"><path d="m26 32h-20c-3.314 0-6-2.686-6-6v-20c0-3.314 2.686-6 6-6h20c3.314 0 6 2.686 6 6v20c0 3.314-2.686 6-6 6z" fill="#f5e6fe"/><g fill="#d9a4fc"><path d="m16 11.787c-.276 0-.5-.224-.5-.5v-.953c0-.276.224-.5.5-.5s.5.224.5.5v.953c0 .276-.224.5-.5.5z"/><path d="m18.36 14.14c-.128 0-.256-.049-.354-.146-.195-.195-.195-.512 0-.707l1.646-1.646c.195-.195.512-.195.707 0s.195.512 0 .707l-1.646 1.646c-.097.097-.225.146-.353.146z"/><path d="m21.667 16.5h-1.34c-.276 0-.5-.224-.5-.5s.224-.5.5-.5h1.34c.276 0 .5.224.5.5s-.224.5-.5.5z"/><path d="m20.007 20.507c-.128 0-.256-.049-.354-.146l-.573-.573c-.195-.195-.195-.512 0-.707.196-.196.512-.195.707 0l.573.573c.195.195.195.512 0 .707-.098.097-.226.146-.353.146z"/><path d="m16 22.167c-.276 0-.5-.224-.5-.5v-2c0-.276.224-.5.5-.5s.5.224.5.5v2c0 .276-.224.5-.5.5z"/><path d="m11.993 20.507c-.128 0-.256-.049-.354-.146-.195-.195-.195-.512 0-.707l.607-.606c.196-.196.512-.195.707 0s.195.512 0 .707l-.607.606c-.097.097-.225.146-.353.146z"/><path d="m11.654 16.5h-1.32c-.276 0-.5-.224-.5-.5s.224-.5.5-.5h1.32c.276 0 .5.224.5.5s-.224.5-.5.5z"/><path d="m13.654 14.153c-.128 0-.256-.049-.354-.146l-1.66-1.66c-.195-.195-.195-.512 0-.707s.512-.195.707 0l1.66 1.66c.195.195.195.512 0 .707-.098.097-.225.146-.353.146z"/></g><path d="m14.261 19.333c-.101 0-.201-.03-.286-.09-.157-.11-.238-.299-.207-.488l.287-1.8-1.245-1.266c-.131-.134-.177-.329-.118-.507s.212-.308.397-.337l1.694-.264.757-1.624c.081-.176.258-.288.451-.289h.002c.193 0 .369.111.452.286l.768 1.619 1.695.253c.186.028.34.157.4.334.061.177.016.374-.115.508l-1.236 1.274.3 1.798c.031.189-.048.379-.204.49-.158.112-.363.123-.53.031l-1.512-.828-1.506.839c-.077.041-.161.061-.244.061z" fill="#be63f9"/><circle cx="16" cy="9.333" fill="#d9a4fc" r="1.333"/><path d="m20.714 12.618c.341 0 .683-.13.943-.389.52-.52.52-1.366 0-1.886-.52-.519-1.366-.519-1.885 0-.52.52-.52 1.366 0 1.886.259.26.601.389.942.389z" fill="#d9a4fc"/><path d="m22.667 14.667c-.735 0-1.333.598-1.333 1.333s.598 1.333 1.333 1.333 1.333-.598 1.333-1.333-.598-1.333-1.333-1.333z" fill="#d9a4fc"/><path d="m19.772 19.771c-.52.52-.52 1.366 0 1.886.26.259.602.389.943.389s.683-.13.943-.39c.52-.52.52-1.366 0-1.886-.521-.518-1.367-.518-1.886.001z" fill="#d9a4fc"/><circle cx="16" cy="22.667" fill="#d9a4fc" r="1.333"/><path d="m10.343 19.771c-.52.52-.52 1.366 0 1.886.26.259.602.389.943.389s.683-.13.943-.39c.52-.52.52-1.366 0-1.886-.52-.518-1.366-.518-1.886.001z" fill="#d9a4fc"/><circle cx="9.333" cy="16" fill="#d9a4fc" r="1.333"/><path d="m12.228 10.343c-.52-.519-1.366-.519-1.885 0-.52.52-.52 1.366 0 1.886.26.259.602.389.943.389s.683-.13.943-.39c.52-.519.52-1.365-.001-1.885z" fill="#d9a4fc"/></svg>